<svg width="31" height="10" viewBox="0 0 31 10" fill="none" xmlns="http://www.w3.org/2000/svg">
<path d="M0.336 5.64C0.336 4.952 0.464 4.348 0.72 3.828C0.984 3.308 1.34 2.908 1.788 2.628C2.236 2.348 2.736 2.208 3.288 2.208C3.728 2.208 4.128 2.3 4.488 2.484C4.856 2.668 5.144 2.916 5.352 3.228V0.12H7.404V9H5.352V8.04C5.16 8.36 4.884 8.616 4.524 8.808C4.172 9 3.76 9.096 3.288 9.096C2.736 9.096 2.236 8.956 1.788 8.676C1.34 8.388 0.984 7.984 0.72 7.464C0.464 6.936 0.336 6.328 0.336 5.64ZM5.352 5.652C5.352 5.14 5.208 4.736 4.92 4.44C4.64 4.144 4.296 3.996 3.888 3.996C3.48 3.996 3.132 4.144 2.844 4.44C2.564 4.728 2.424 5.128 2.424 5.64C2.424 6.152 2.564 6.56 2.844 6.864C3.132 7.16 3.48 7.308 3.888 7.308C4.296 7.308 4.64 7.16 4.92 6.864C5.208 6.568 5.352 6.164 5.352 5.652ZM8.48053 5.64C8.48053 4.952 8.60853 4.348 8.86453 3.828C9.12853 3.308 9.48453 2.908 9.93253 2.628C10.3805 2.348 10.8805 2.208 11.4325 2.208C11.9045 2.208 12.3165 2.304 12.6685 2.496C13.0285 2.688 13.3045 2.94 13.4965 3.252V2.304H15.5485V9H13.4965V8.052C13.2965 8.364 13.0165 8.616 12.6565 8.808C12.3045 9 11.8925 9.096 11.4205 9.096C10.8765 9.096 10.3805 8.956 9.93253 8.676C9.48453 8.388 9.12853 7.984 8.86453 7.464C8.60853 6.936 8.48053 6.328 8.48053 5.64ZM13.4965 5.652C13.4965 5.14 13.3525 4.736 13.0645 4.44C12.7845 4.144 12.4405 3.996 12.0325 3.996C11.6245 3.996 11.2765 4.144 10.9885 4.44C10.7085 4.728 10.5685 5.128 10.5685 5.64C10.5685 6.152 10.7085 6.56 10.9885 6.864C11.2765 7.16 11.6245 7.308 12.0325 7.308C12.4405 7.308 12.7845 7.16 13.0645 6.864C13.3525 6.568 13.4965 6.164 13.4965 5.652ZM20.0451 7.08L21.4971 2.304H23.6811L21.3051 9H18.7731L16.3971 2.304H18.5931L20.0451 7.08ZM30.8568 5.544C30.8568 5.736 30.8448 5.936 30.8208 6.144H26.1768C26.2088 6.56 26.3408 6.88 26.5728 7.104C26.8128 7.32 27.1048 7.428 27.4488 7.428C27.9608 7.428 28.3168 7.212 28.5168 6.78H30.7008C30.5888 7.22 30.3848 7.616 30.0888 7.968C29.8008 8.32 29.4368 8.596 28.9968 8.796C28.5568 8.996 28.0648 9.096 27.5208 9.096C26.8648 9.096 26.2808 8.956 25.7688 8.676C25.2568 8.396 24.8568 7.996 24.5688 7.476C24.2808 6.956 24.1368 6.348 24.1368 5.652C24.1368 4.956 24.2768 4.348 24.5568 3.828C24.8448 3.308 25.2448 2.908 25.7568 2.628C26.2688 2.348 26.8568 2.208 27.5208 2.208C28.1688 2.208 28.7448 2.344 29.2488 2.616C29.7528 2.888 30.1448 3.276 30.4248 3.78C30.7128 4.284 30.8568 4.872 30.8568 5.544ZM28.7568 5.004C28.7568 4.652 28.6368 4.372 28.3968 4.164C28.1568 3.956 27.8568 3.852 27.4968 3.852C27.1528 3.852 26.8608 3.952 26.6208 4.152C26.3888 4.352 26.2448 4.636 26.1888 5.004H28.7568Z" fill="#38E9BB"/>
</svg>
